<?xml version="1.0" encoding="utf-8"?>
<!-- Generator: Adobe Illustrator 18.0.0, SVG Export Plug-In . SVG Version: 6.00 Build 0)  -->
<!DOCTYPE svg PUBLIC "-//W3C//DTD SVG 1.1//EN" "http://www.w3.org/Graphics/SVG/1.1/DTD/svg11.dtd">
<svg version="1.1" id="Layer_1" xmlns="http://www.w3.org/2000/svg" xmlns:xlink="http://www.w3.org/1999/xlink" x="0px" y="0px"
	 viewBox="0 27.8 113.4 135" enable-background="new 0 27.8 113.4 135" xml:space="preserve">
<path fill="#FFFFFF" d="M52.4,49c0.8,0,1.7,0,2.5,0c2.8,0,5.6,0,8.4,0c2.2,0,4.2,0.9,5.9,2.3c2,1.6,3.4,3.7,3.8,6.3
	c0.1,1,0.1,1.9,0.1,2.9c0,5.4,0,10.8,0,16.2c0,10.1,0,20.1,0,30.2c0,2-0.7,3.8-1.9,5.3c-1.6,2.1-3.7,3.6-6.3,4.1
	c-0.4,0.1-0.9,0.1-1.3,0.1c-4.4,0-8.8,0-13.1,0c-3.5,0-6.1-1.7-8.1-4.4c-1.2-1.6-1.8-3.5-1.8-5.5c0-11.2,0-22.4,0-33.7
	c0-4.5,0-9,0-13.5c0-2.5,0.8-4.6,2.3-6.4c1.5-1.8,3.4-3,5.7-3.5c0.3-0.1,0.6-0.1,1-0.2C50.4,49,51.4,49,52.4,49z M65,82.7
	C65.1,82.7,65.1,82.7,65,82.7c0-2.3,0-4.6,0-6.9c0-5.5,0-11,0-16.5c0-0.7-0.2-1.2-0.7-1.7c-0.2-0.1-0.3-0.3-0.5-0.4
	c-0.2-0.1-0.5-0.2-0.7-0.2c-4.2,0-8.4,0-12.6,0c-0.5,0-0.9,0.2-1.3,0.5c-0.2,0.2-0.4,0.4-0.6,0.6c-0.1,0.3-0.3,0.6-0.3,0.9
	c0,4.8,0,9.6,0,14.4c0,11.1,0,22.1,0,33.2c0,0.1,0,0.2,0,0.3c0.2,0.7,1.3,1.5,2.1,1.5c4.1,0,8.2,0,12.3,0c0.6,0,1-0.2,1.4-0.6
	c0.2-0.2,0.3-0.4,0.5-0.5c0.2-0.3,0.3-0.6,0.3-0.9C65,98.5,65,90.6,65,82.7z"/>
<path fill="#FFFFFF" d="M84,98.9c0,4.9,0,9.8,0,14.7c0,6.5-4.8,12.2-11.3,13.1c-1.4,0.2-2.8,0.2-4.2,0.2c-7.6,0-15.3,0-22.9,0
	c-1.3,0-2.7,0-4-0.1c-4.6-0.5-8.1-2.8-10.5-6.8c-1.2-2-1.7-4.2-1.7-6.5c0-7.8,0-15.6,0-23.5c0-2,0-4,0-6.1c0-1.6,0.9-2.9,2.4-3.4
	c2.2-0.7,4.5,0.7,4.6,3c0.1,1.8,0,3.5,0,5.3c0,8.2,0,16.4,0,24.5c0,3.2,2.1,5.9,5.3,6.4c0.8,0.1,1.7,0.1,2.5,0.1
	c8.8,0,17.6,0,26.3,0c3.3,0,5.9-2.2,6.4-5.4c0.1-0.5,0.1-1,0.1-1.5c0-9.7,0-19.4,0-29c0-1.8,1.2-3.3,2.9-3.5
	c1.7-0.3,3.3,0.7,3.9,2.3c0.1,0.4,0.2,0.8,0.2,1.2C84,89,84,93.9,84,98.9z"/>
<path fill="#FFFFFF" d="M60.1,142.4c1.3,0,2.5,0,3.8,0c4.6,0,9.2,0,13.7,0c1.8,0,3.3,1.3,3.5,2.9c0.3,2.2-1.3,4-3.5,4
	c-8.5,0-17,0-25.6,0c-5.4,0-10.9,0-16.4,0c-1.7,0-3.1-0.9-3.5-2.4c-0.7-2.2,1-4.5,3.4-4.5c3.2,0,6.4,0,9.6,0c2.5,0,5.1,0,7.6,0
	c0.3,0,0.3-0.2,0.3-0.4c0-3.1,0-6.2,0-9.3c0-1.7,1-3,2.5-3.4c2.2-0.7,4.5,1,4.5,3.4c0,3.1,0,6.3,0,9.4
	C60.1,142.1,60.1,142.2,60.1,142.4z"/>
</svg>
