<?xml version="1.0" encoding="utf-8"?>
<!-- Generator: Adobe Illustrator 18.0.0, SVG Export Plug-In . SVG Version: 6.00 Build 0)  -->
<!DOCTYPE svg PUBLIC "-//W3C//DTD SVG 1.1//EN" "http://www.w3.org/Graphics/SVG/1.1/DTD/svg11.dtd">
<svg version="1.1" id="Layer_1" xmlns="http://www.w3.org/2000/svg" xmlns:xlink="http://www.w3.org/1999/xlink" x="0px" y="0px"
	 viewBox="0 38.8 113.4 120" enable-background="new 0 38.8 113.4 120" xml:space="preserve">
<path fill="#FFFFFF" d="M31.3,142h-7c-1.5,0-2.4-1.2-2.4-2.8l-0.4-69.5L0,74.5l15.3,69c0.8,1.7,2.3,3.1,4.1,4
	c1.5,0.8,3.2,1.1,4.7,0.9l40.4-6.4H31.3z"/>
<rect x="29.6" y="65.3" fill="#FFFFFF" width="69.1" height="9.9"/>
<rect x="29.6" y="85" fill="#FFFFFF" width="39.5" height="19.8"/>
<rect x="74.1" y="85" fill="#FFFFFF" width="24.7" height="4.9"/>
<rect x="74.1" y="99.8" fill="#FFFFFF" width="24.7" height="4.9"/>
<rect x="29.6" y="114.7" fill="#FFFFFF" width="69.1" height="4.9"/>
<rect x="29.6" y="129.5" fill="#FFFFFF" width="69.1" height="4.9"/>
<g>
	<path fill="#FFFFFF" d="M107.2,59.5v1.1h0l0,78.6c0,1.6-1.3,2.8-2.8,2.8H24.3c-1.5,0-2.4-1.2-2.4-2.8l0-78.8v-2h-6.1v-0.2
		l-0.1,82.5c0,4.3,3.1,7.7,7.4,7.7h82.2c4.3,0,8.1-3.5,8.1-7.8V58.5h-6.2L107.2,59.5L107.2,59.5z"/>
	<polygon fill="#FFFFFF" points="105.7,50.5 23.4,50.5 15.7,50.5 15.7,58.2 15.7,58.5 21.9,58.5 21.9,56.6 107.2,56.6 107.2,58.5 
		113.4,58.5 113.4,50.5 	"/>
</g>
</svg>
