<svg xmlns="http://www.w3.org/2000/svg" xmlns:xlink="http://www.w3.org/1999/xlink" version="1.1" x="0px" y="0px" viewBox="0 0 100 125" enable-background="new 0 0 100 100" xml:space="preserve"><path d="M27.575,87.704h-6.158c-1.361,0-2.152-1.059-2.152-2.434l-0.314-61.26L0,28.207l13.493,60.808  c0.706,1.535,2.063,2.768,3.607,3.547c1.322,0.672,2.807,1.008,4.185,0.787l35.646-5.645H27.575z"/><rect x="26.133" y="20.066" width="60.974" height="8.711"/><rect x="26.133" y="37.486" width="34.841" height="17.422"/><rect x="65.33" y="37.486" width="21.777" height="4.355"/><rect x="65.33" y="50.553" width="21.777" height="4.355"/><rect x="26.133" y="63.618" width="60.974" height="4.355"/><rect x="26.133" y="76.685" width="60.974" height="4.355"/><g><path fill="none" d="M19.282,14.949l-0.005,0.859l-0.029,69.462c0,1.375,0.791,2.434,2.152,2.434h70.709   c1.357,0,2.463-1.105,2.463-2.48l-0.004-69.328l0.004-0.946c0-0.316-0.068-0.614-0.18-0.896h0.18V12.45H19.277v1.604h0.184   C19.354,14.335,19.282,14.633,19.282,14.949z"/><path d="M94.572,14.949v0.946h-0.004l0.004,69.328c0,1.375-1.105,2.48-2.463,2.48H21.4c-1.361,0-2.152-1.059-2.152-2.434   l0.029-69.462v-1.755h-5.418v-0.195l-0.072,72.777c0,3.781,2.765,6.785,6.524,6.785h72.534c3.756,0,7.154-3.076,7.154-6.852V14.054   h-5.428V14.949z"/><polygon points="93.197,7 20.656,7 13.859,7 13.859,13.858 13.859,14.054 19.277,14.054 19.277,12.45 94.572,12.45 94.572,14.054    100,14.054 100,7  "/><polygon fill="#000000" points="94.572,15.896 94.572,14.949 94.568,15.896  "/></g><text x="0" y="115" fill="#000000" font-size="5px" font-weight="bold" font-family="'Helvetica Neue', Helvetica, Arial-Unicode, Arial, Sans-serif">Created by Juliette WAGNER</text><text x="0" y="120" fill="#000000" font-size="5px" font-weight="bold" font-family="'Helvetica Neue', Helvetica, Arial-Unicode, Arial, Sans-serif">from the Noun Project</text></svg>