<svg xmlns="http://www.w3.org/2000/svg" xmlns:xlink="http://www.w3.org/1999/xlink" version="1.1" x="0px" y="0px" viewBox="0 0 100 125" enable-background="new 0 0 100 100" xml:space="preserve"><path fill-rule="evenodd" clip-rule="evenodd" d="M46.196,5.693c0.728,0.012,1.456,0.034,2.185,0.036  c2.481,0.006,4.963,0.013,7.444,0.006c1.983-0.005,3.678,0.75,5.172,1.985c1.749,1.447,2.975,3.24,3.309,5.526  c0.123,0.84,0.076,1.708,0.076,2.563c0.003,4.748-0.003,9.497-0.008,14.245c-0.01,8.874-0.017,17.75-0.035,26.624  c-0.003,1.769-0.651,3.325-1.707,4.715c-1.423,1.869-3.243,3.142-5.586,3.581c-0.371,0.071-0.756,0.099-1.133,0.101  c-3.862,0.004-7.725,0.009-11.588-0.005c-3.071-0.012-5.337-1.532-7.105-3.905c-1.069-1.436-1.585-3.061-1.58-4.874  c0.025-9.896,0.026-19.792,0.035-29.688c0.004-3.98,0.04-7.96,0.002-11.94c-0.02-2.171,0.68-4.043,2.06-5.678  c1.336-1.583,2.986-2.683,5.037-3.123c0.283-0.061,0.57-0.101,0.855-0.151C44.483,5.705,45.34,5.699,46.196,5.693z M57.354,35.403  c0.017,0,0.031,0,0.047,0c-0.014-2.025-0.036-4.049-0.037-6.072c-0.003-4.857-0.008-9.712,0.021-14.568  c0.005-0.628-0.193-1.089-0.643-1.479c-0.141-0.121-0.271-0.264-0.434-0.341c-0.194-0.095-0.415-0.185-0.624-0.186  c-3.708-0.017-7.416-0.013-11.123-0.034c-0.458-0.003-0.815,0.137-1.122,0.447c-0.177,0.18-0.376,0.353-0.497,0.568  c-0.125,0.227-0.236,0.5-0.237,0.754c-0.018,4.232-0.019,8.465-0.021,12.698c-0.009,9.752-0.016,19.502-0.021,29.252  c0,0.097-0.002,0.198,0.026,0.289c0.208,0.648,1.144,1.326,1.83,1.326c3.629,0.005,7.259-0.003,10.888,0.021  c0.502,0.002,0.887-0.156,1.225-0.493c0.15-0.151,0.295-0.31,0.432-0.474c0.192-0.233,0.274-0.494,0.273-0.807  C57.337,49.337,57.347,42.371,57.354,35.403z"/><path fill-rule="evenodd" clip-rule="evenodd" d="M74.091,49.731c-0.007,4.329-0.012,8.659-0.018,12.989  c-0.008,5.767-4.275,10.75-9.984,11.576c-1.225,0.177-2.483,0.149-3.727,0.15c-6.743,0.008-13.485-0.002-20.229-0.013  c-1.167-0.002-2.341,0.044-3.5-0.07c-4.083-0.399-7.15-2.438-9.222-5.958c-1.037-1.763-1.513-3.699-1.512-5.742  c0.003-6.898,0.016-13.796,0.023-20.696c0.003-1.781-0.007-3.562-0.001-5.342c0.004-1.453,0.79-2.592,2.073-3.035  c1.898-0.657,3.942,0.655,4.039,2.662c0.075,1.544,0.027,3.095,0.026,4.641c-0.008,7.21-0.02,14.42-0.027,21.63  c-0.003,2.857,1.887,5.17,4.69,5.67c0.719,0.128,1.472,0.093,2.209,0.094c7.745,0.014,15.491,0.02,23.235,0.027  c2.883,0.003,5.184-1.901,5.688-4.741c0.078-0.436,0.08-0.889,0.082-1.336c0.011-8.534,0.017-17.066,0.025-25.601  c0.003-1.586,1.048-2.87,2.529-3.124c1.487-0.255,2.943,0.579,3.425,1.998c0.117,0.343,0.177,0.722,0.178,1.084  C74.103,40.975,74.095,45.353,74.091,49.731z"/><path fill-rule="evenodd" clip-rule="evenodd" d="M53.033,88.089c1.139-0.007,2.236-0.021,3.335-0.021c4.038,0,8.075,0,12.113,0.006  c1.581,0.003,2.889,1.106,3.095,2.592c0.267,1.923-1.118,3.545-3.062,3.545c-7.512-0.002-15.023-0.015-22.535-0.022  c-4.805-0.005-9.613-0.007-14.42-0.009c-1.521-0.001-2.693-0.806-3.126-2.154c-0.636-1.982,0.839-3.978,2.978-3.986  c2.822-0.012,5.643,0.007,8.464,0.01c2.248,0.003,4.495-0.003,6.743,0.01c0.288,0.001,0.278-0.144,0.278-0.344  c0-2.744,0.001-5.488,0.007-8.232c0.003-1.457,0.866-2.645,2.194-3.032c1.975-0.577,3.93,0.877,3.938,2.957  c0.013,2.763,0,5.526-0.004,8.289C53.03,87.801,53.032,87.906,53.033,88.089z"/><text x="0" y="115" fill="#000000" font-size="5px" font-weight="bold" font-family="'Helvetica Neue', Helvetica, Arial-Unicode, Arial, Sans-serif">Created by Alexandr Cherkinsky</text><text x="0" y="120" fill="#000000" font-size="5px" font-weight="bold" font-family="'Helvetica Neue', Helvetica, Arial-Unicode, Arial, Sans-serif">from the Noun Project</text></svg>