<svg xmlns="http://www.w3.org/2000/svg" xmlns:xlink="http://www.w3.org/1999/xlink" version="1.1" x="0px" y="0px" viewBox="0 0 48 60" enable-background="new 0 0 48 48" xml:space="preserve"><g><path d="M18.6,45.2c-0.1,0-0.3,0-0.4-0.101c-0.3-0.199-0.5-0.5-0.5-0.8V36.9H7.6c-3.6,0-6.4-2.9-6.4-6.4V11.1   c0-3.6,2.8-6.4,6.4-6.4h33.1c3.6,0,6.399,2.9,6.399,6.4v19.3c0,3.5-3,6.399-6.399,6.399H30L19.2,45C19,45.1,18.8,45.2,18.6,45.2z    M7.6,6.5C5,6.5,3,8.6,3,11.1v19.3C3,33,5,35.1,7.6,35.1h11c0.5,0,0.9,0.4,0.9,0.9v6.4l9.6-7.2C29.3,35.1,29.5,35,29.7,35h11   c2.5,0,4.6-2.1,4.6-4.6V11.1c0-2.5-2.1-4.6-4.6-4.6H7.6z"/></g><g><circle cx="33.4" cy="20.8" r="2.8"/></g><g><circle cx="24.2" cy="20.8" r="2.8"/></g><g><circle cx="15" cy="20.8" r="2.8"/></g><text x="0" y="63" fill="#000000" font-size="5px" font-weight="bold" font-family="'Helvetica Neue', Helvetica, Arial-Unicode, Arial, Sans-serif">Created by Cassandra Cappello</text><text x="0" y="68" fill="#000000" font-size="5px" font-weight="bold" font-family="'Helvetica Neue', Helvetica, Arial-Unicode, Arial, Sans-serif">from the Noun Project</text></svg>