<?xml version="1.0" encoding="utf-8"?>
<!-- Generator: Adobe Illustrator 18.0.0, SVG Export Plug-In . SVG Version: 6.00 Build 0)  -->
<!DOCTYPE svg PUBLIC "-//W3C//DTD SVG 1.1//EN" "http://www.w3.org/Graphics/SVG/1.1/DTD/svg11.dtd">
<svg version="1.1" id="Layer_1" xmlns="http://www.w3.org/2000/svg" xmlns:xlink="http://www.w3.org/1999/xlink" x="0px" y="0px"
	 viewBox="0 37.8 113.4 121" enable-background="new 0 37.8 113.4 121" xml:space="preserve">
<g>
	<path fill="#FFFFFF" d="M43.9,149.3c-0.2,0-0.7,0-0.9-0.2c-0.7-0.5-1.2-1.2-1.2-1.9v-17.5H18c-8.5,0-15.1-6.9-15.1-15.1V68.7
		c0-8.5,6.6-15.1,15.1-15.1h78.2c8.5,0,15.1,6.9,15.1,15.1v45.6c0,8.3-7.1,15.1-15.1,15.1H70.9l-25.5,19.4
		C44.9,149.1,44.4,149.3,43.9,149.3z M18,57.9c-6.1,0-10.9,5-10.9,10.9v45.6c0,6.1,4.7,11.1,10.9,11.1h26c1.2,0,2.1,0.9,2.1,2.1
		v15.1l22.7-17c0.5-0.2,0.9-0.5,1.4-0.5h26c5.9,0,10.9-5,10.9-10.9V68.7c0-5.9-5-10.9-10.9-10.9C96.1,57.9,18,57.9,18,57.9z"/>
</g>
<g>
	<circle fill="#FFFFFF" cx="78.9" cy="91.7" r="6.6"/>
</g>
<g>
	<circle fill="#FFFFFF" cx="57.2" cy="91.7" r="6.6"/>
</g>
<g>
	<circle fill="#FFFFFF" cx="35.4" cy="91.7" r="6.6"/>
</g>
</svg>
